<?xml version="1.0" encoding="UTF-8"?>
<svg id="Capa_2" data-name="Capa 2" xmlns="http://www.w3.org/2000/svg" viewBox="0 0 160.11 173.3">
  <defs>
    <style>
      .cls-1 {
        fill: #ff0037;
        stroke-width: 0px;
      }
    </style>
  </defs>
  <g id="Capa_2-2" data-name="Capa 2">
    <path class="cls-1" d="M152.22,131.75h-15.38l-16.11-20.89c-1.27-1.99-3.9-2.57-5.89-1.3l-1.91.66c-1.99,1.27-2.57,3.9-1.3,5.89l9.35,22.27c-.07.41-.11.83-.11,1.25v3.26h-52.4l28.29-24.88c1.79-1.53,2-4.22.46-6.01l-1.88-2.2c-1.53-1.79-4.22-2-6.01-.46l-31.21,20.11c-.65-.02-1.31.03-1.98.19l-5.07,1.15-12.61-43.47,2.88-1.53,53.66,10.72c2.23.77,4.65-.41,5.43-2.63l.62-1.8c.77-2.23-.41-4.65-2.63-5.43l-49.77-16.25,62.9-29.53.64,1.78c1.55,4.31,6.3,6.54,10.6,4.99l2.83-1.02,2.55,37.23c.71,2.25,3.1,3.49,5.35,2.79l1.62-.51c2.25-.71,3.49-3.1,2.79-5.35l3.65-39.9,4.41-1.59c4.31-1.55,6.54-6.3,4.99-10.6l-8.35-23.2c-1.55-4.31-6.3-6.54-10.6-4.99l-23.2,8.35c-4.31,1.55-6.54,6.3-4.99,10.6l1.95,5.41-65.69,30.84-2.7-5.1c-2.14-4.04-7.16-5.58-11.2-3.44l-21.79,11.54c-4.04,2.14-5.58,7.16-3.44,11.2l11.54,21.79c2.05,3.86,6.71,5.43,10.65,3.7l11.36,39.16-1.26.29c-4.25.97-6.91,5.19-5.94,9.44l5.2,22.88c.97,4.25,5.19,6.91,9.44,5.94l22.88-5.2c3.78-.86,6.3-4.31,6.12-8.06h49.9v3.26c0,4.36,3.53,7.89,7.89,7.89h23.47c4.36,0,7.89-3.53,7.89-7.89v-23.47c0-4.36-3.53-7.89-7.89-7.89Z"/>
  </g>
</svg>