<?xml version="1.0" encoding="UTF-8"?>
<svg id="Capa_2" data-name="Capa 2" xmlns="http://www.w3.org/2000/svg" xmlns:xlink="http://www.w3.org/1999/xlink" viewBox="0 0 595.1 1275.79">
  <defs>
    <style>
      .cls-1 {
        stroke: #fff;
        stroke-miterlimit: 10;
        stroke-width: 2.15px;
      }

      .cls-1, .cls-2, .cls-3 {
        opacity: 0;
      }

      .cls-4, .cls-5, .cls-6, .cls-3 {
        stroke-width: 0px;
      }

      .cls-7 {
        opacity: .2;
      }

      .cls-5 {
        fill: none;
      }

      .cls-8 {
        clip-path: url(#clippath);
      }

      .cls-6 {
        fill: #282828;
      }
    </style>
    <clipPath id="clippath">
      <rect class="cls-5" x="0" width="595.1" height="1275.79"/>
    </clipPath>
  </defs>
  <g id="Capa_2-2" data-name="Capa 2">
    <g>
      <rect class="cls-6" x="0" width="595.1" height="1275.79"/>
      <g class="cls-8">
        <g class="cls-7">
          <rect class="cls-3" x="-87.58" y="520.15" width="312.83" height="312.83" transform="translate(-458.24 246.84) rotate(-45)"/>
          <rect class="cls-3" x="354.83" y="77.74" width="312.83" height="312.83" transform="translate(-15.83 430.09) rotate(-45)"/>
          <rect class="cls-3" x="354.83" y="962.56" width="312.83" height="312.83" transform="translate(-641.5 689.25) rotate(-45)"/>
          <rect class="cls-3" x="-87.58" y="77.74" width="312.83" height="312.83" transform="translate(-145.41 117.26) rotate(-45)"/>
          <rect class="cls-3" x="354.83" y="-364.67" width="312.83" height="312.83" transform="translate(297 300.51) rotate(-45)"/>
          <rect class="cls-3" x="-87.58" y="962.56" width="312.83" height="312.83" transform="translate(-771.07 376.42) rotate(-45)"/>
          <rect class="cls-3" x="354.83" y="520.15" width="312.83" height="312.83" transform="translate(-328.66 559.67) rotate(-45)"/>
          <g>
            <g class="cls-2">
              <rect class="cls-4" x="354.83" y="520.15" width="312.83" height="312.83" transform="translate(-328.66 559.67) rotate(-45)"/>
            </g>
            <line class="cls-4" x1="516.1" y1="692.47" x2="516.18" y2="692.46"/>
            <path class="cls-4" d="M499.23,639.58l1.04,7.98c.38,2.92,2.97,5.03,5.91,4.84,3.38-.22,6.77-.21,10.15,0,2.94.19,5.53-1.92,5.91-4.84l1.04-7.98c.41-3.19-1.93-6.1-5.14-6.32-4.6-.32-9.2-.32-13.78,0-3.2.23-5.55,3.14-5.13,6.32Z"/>
            <path class="cls-4" d="M474.73,519.27l-52.31,52.31c-20.17,20.17-20.17,52.87,0,73.04l14.49,14.49c2.08,2.08,2.18,5.41.25,7.63-34.68,39.66-32.11,100.55,7.65,137.09,37.31,34.28,95.57,34.28,132.88,0,39.77-36.54,42.34-97.42,7.65-137.09-1.94-2.21-1.83-5.55.25-7.63l14.49-14.49c20.17-20.17,20.17-52.87,0-73.04l-52.31-52.31c-20.17-20.17-52.87-20.17-73.04,0ZM586.49,585.17c12.66,12.66,12.66,33.2,0,45.86l-16.18,16.18c-1.83,1.83-4.69,2.17-6.89.79-2.94-1.85-5.96-3.53-9.11-5.07-2.88-1.41-6.37-.05-7.6,2.91l-3.06,7.38c-1.13,2.73.04,5.87,2.68,7.19l.22.11c3.42,1.71,4.17,6.27,1.46,8.98l-6.69,6.69c-2.18,2.18-2.18,5.73,0,7.91l5.68,5.68c2.18,2.18,5.73,2.18,7.91,0l9.12-9.12c2.31-2.31,6.14-2.19,8.22.32,26.93,32.54,23.75,81.78-9.51,110.41-29.38,25.28-73.6,25.28-102.98,0-33.26-28.63-36.43-77.87-9.51-110.41,2.08-2.52,5.91-2.63,8.22-.32l10.24,10.24c2.18,2.18,5.73,2.18,7.91,0l5.68-5.68c2.18-2.18,2.18-5.73,0-7.91l-7.8-7.8c-2.71-2.71-1.96-7.28,1.47-8.99l.21-.1c2.63-1.3,3.8-4.42,2.67-7.13l-3.08-7.43c-1.23-2.98-4.73-4.32-7.62-2.91-2.36,1.15-6.19,3.41-9.04,5.14-2.2,1.34-5.03,1-6.86-.83l-16.24-16.24c-12.66-12.66-12.66-33.2,0-45.86l52.31-52.31c12.66-12.66,33.2-12.66,45.86,0l52.31,52.31Z"/>
            <path class="cls-4" d="M525.1,695.42l2.96,7.48c1.24,3.14-.57,6.65-3.84,7.5-7.99,2.07-16.39,2.19-24.42.36-3.29-.75-5.2-4.2-4.06-7.37l2.72-7.56c.94-2.6,3.63-4.13,6.34-3.58,4.57.92,9.31.85,13.85-.21,2.69-.63,5.43.81,6.45,3.38Z"/>
          </g>
          <g>
            <g class="cls-2">
              <rect class="cls-4" x="133.63" y="298.94" width="312.83" height="312.83" transform="translate(-237.04 338.46) rotate(-45)"/>
            </g>
            <path class="cls-4" d="M153.29,433.6l5.78,5.78c2.18,2.18,2.18,5.73,0,7.91l-17.8,17.8c-2.18,2.18-2.18,5.73,0,7.91l5.78,5.78c2.18,2.18,2.18,5.73,0,7.91l-5.78,5.78c-2.18,2.18-5.73,2.18-7.91,0l-33.38-33.38c-2.18-2.18-2.18-5.73,0-7.91l5.78-5.78c2.18-2.18,5.73-2.18,7.91,0l6,6c2.18,2.18,5.73,2.18,7.91,0l17.8-17.8c2.18-2.18,5.73-2.18,7.91,0Z"/>
            <path class="cls-4" d="M293.79,265.29l33.38,33.38c2.18,2.18,2.18,5.73,0,7.91l-5.78,5.78c-2.18,2.18-5.73,2.18-7.91,0l-5.78-5.78c-2.18-2.18-5.73-2.18-7.91,0l-23.25,23.25c-2.18,2.18-5.73,2.18-7.91,0l-5.78-5.78c-2.18-2.18-2.18-5.73,0-7.91l23.25-23.25c2.18-2.18,2.18-5.73,0-7.91l-6-6c-2.18-2.18-2.18-5.73,0-7.91l5.78-5.78c2.18-2.18,5.73-2.18,7.91,0Z"/>
            <rect class="cls-4" x="165.25" y="349.94" width="96.83" height="58.1" rx="15" ry="15" transform="translate(-205.4 262.09) rotate(-45)"/>
            <path class="cls-4" d="M341.78,374.14l-132.95,132.95c-16.81,16.81-16.81,44.05,0,60.86l50.79,50.79c16.81,16.81,44.05,16.81,60.86,0l132.95-132.95c16.81-16.81,16.81-44.05,0-60.86l-50.79-50.79c-16.81-16.81-44.05-16.81-60.86,0ZM439.84,438.52c9.26,9.26,9.26,24.42,0,33.69l-132.95,132.95c-9.26,9.26-24.42,9.26-33.69,0l-50.79-50.79c-9.3-9.3-9.3-24.39,0-33.69l.9-.9c2.18-2.18,5.73-2.18,7.91,0l35.59,35.59c2.18,2.18,5.73,2.18,7.91,0l5.78-5.78c2.18-2.18,2.18-5.73,0-7.91l-35.59-35.59c-2.18-2.18-2.18-5.73,0-7.91l5.78-5.78c2.18-2.18,5.73-2.18,7.91,0l19.13,19.13c2.18,2.18,5.73,2.18,7.91,0l5.78-5.78c2.18-2.18,2.18-5.73,0-7.91l-19.13-19.13c-2.18-2.18-2.18-5.73,0-7.91l5.78-5.78c2.18-2.18,5.73-2.18,7.91,0l35.59,35.59c2.18,2.18,5.73,2.18,7.91,0l5.78-5.78c2.18-2.18,2.18-5.73,0-7.91l-35.59-35.59c-2.18-2.18-2.18-5.73,0-7.91l5.78-5.78c2.18-2.18,5.73-2.18,7.91,0l19.13,19.13c2.18,2.18,5.73,2.18,7.91,0l5.78-5.78c2.18-2.18,2.18-5.73,0-7.91l-19.13-19.13c-2.18-2.18-2.18-5.73,0-7.91l5.78-5.78c2.18-2.18,5.73-2.18,7.91,0l35.59,35.59c2.18,2.18,5.73,2.18,7.91,0l5.78-5.78c2.18-2.18,2.18-5.73,0-7.91l-35.59-35.59c-2.18-2.18-2.18-5.73,0-7.91l.9-.9c9.3-9.3,24.39-9.3,33.69,0l50.79,50.79Z"/>
            <path class="cls-4" d="M173.22,504.97l23.89,23.89c-2.83,13.69,1.1,28.48,11.72,39.1l-49.3-49.3c-2.18-2.18-2.18-5.73,0-7.91l5.78-5.78c2.18-2.18,5.73-2.18,7.91,0Z"/>
            <path class="cls-4" d="M345.43,324.84c2.18-2.18,5.73-2.18,7.91,0l49.3,49.3c-10.62-10.62-25.41-14.55-39.1-11.72l-23.89-23.89c-2.18-2.18-2.18-5.73,0-7.91l5.78-5.78Z"/>
          </g>
          <rect class="cls-1" x="576.04" y="-143.47" width="312.83" height="312.83" transform="translate(205.37 521.71) rotate(-45)"/>
          <g>
            <rect class="cls-1" x="-87.58" y="962.56" width="312.83" height="312.83" transform="translate(-771.07 376.42) rotate(-45)"/>
            <path class="cls-4" d="M41.72,1044.88c3.09,0,5.6,2.5,5.6,5.6v33.12s-.01.03-.01.03v4.02s0,4.21,0,4.21c0,3.09-2.5,5.6-5.59,5.6h-8.24s-33.14,0-33.14,0c-3.09,0-5.6-2.51-5.59-5.6v-8.39c0-3.09,2.51-5.59,5.6-5.59h.04c4.98,0,7.48-6.03,3.96-9.55l-23.67-23.67c-2.18-2.18-2.18-5.73,0-7.91l5.93-5.93c2.18-2.18,5.73-2.18,7.91,0l23.67,23.67c3.52,3.52,9.55,1.03,9.55-3.96v-.04c0-3.09,2.5-5.59,5.59-5.59h8.39Z"/>
            <path class="cls-4" d="M95.95,1193.07c-3.09,0-5.6-2.5-5.6-5.6v-33.12s.01-.03.01-.03v-8.23c-.01-3.09,2.49-5.6,5.59-5.6h8.24s33.14,0,33.14,0c3.09,0,5.6,2.51,5.59,5.6v8.39c0,3.09-2.51,5.59-5.6,5.59h-.04c-4.98,0-7.48,6.03-3.96,9.55l21.7,21.7c2.18,2.18,2.18,5.73,0,7.91l-5.93,5.93c-2.18,2.18-5.73,2.18-7.91,0l-21.7-21.7c-3.52-3.52-9.55-1.03-9.55,3.96v.04c0,3.09-2.5,5.59-5.59,5.59h-8.39Z"/>
            <rect class="cls-4" x="59.05" y="1001.29" width="19.58" height="235.37" rx="5.59" ry="5.59" transform="translate(811.4 279.07) rotate(45)"/>
          </g>
          <rect class="cls-3" x="-308.79" y="741.36" width="312.83" height="312.83" transform="translate(-679.45 155.21) rotate(-45)"/>
          <g>
            <rect class="cls-3" x="354.83" y="77.74" width="312.83" height="312.83" transform="translate(-15.83 430.09) rotate(-45)"/>
            <g>
              <rect class="cls-4" x="490.4" y="213.3" width="41.7" height="41.7" rx="5.59" ry="5.59" transform="translate(-15.83 430.09) rotate(-45)"/>
              <path class="cls-4" d="M474.73,104.25l-93.39,93.39c-20.18,20.18-20.18,52.86,0,73.04l93.39,93.39c20.16,20.16,52.86,20.18,73.04,0l93.39-93.39c20.16-20.16,20.16-52.87,0-73.04l-93.39-93.39c-20.18-20.18-52.87-20.16-73.04,0ZM562.18,153.74l-17.48,17.48c-2.18,2.18-2.18,5.73,0,7.91l21.58,21.58c2.18,2.18,5.73,2.18,7.91,0l17.48-17.48c2.18-2.18,5.73-2.18,7.91,0l21.58,21.58c2.18,2.18,2.18,5.73,0,7.91l-17.48,17.48c-2.18,2.18-2.18,5.73,0,7.91l17.48,17.48c2.18,2.18,2.18,5.73,0,7.91l-21.58,21.58c-2.18,2.18-5.73,2.18-7.91,0l-17.48-17.48c-2.18-2.18-5.73-2.18-7.91,0l-21.58,21.58c-2.18,2.18-2.18,5.73,0,7.91l17.48,17.48c2.18,2.18,2.18,5.73,0,7.91l-21.58,21.58c-2.18,2.18-5.73,2.18-7.91,0l-17.48-17.48c-2.18-2.18-5.73-2.18-7.91,0l-17.48,17.48c-2.18,2.18-5.73,2.18-7.91,0l-21.58-21.58c-2.18-2.18-2.18-5.73,0-7.91l17.48-17.48c2.18-2.18,2.18-5.73,0-7.91l-21.58-21.58c-2.18-2.18-5.73-2.18-7.91,0l-17.48,17.48c-2.18,2.18-5.73,2.18-7.91,0l-21.58-21.58c-2.18-2.18-2.18-5.73,0-7.91l17.48-17.48c2.18-2.18,2.18-5.73,0-7.91l-17.48-17.48c-2.18-2.18-2.18-5.73,0-7.91l21.58-21.58c2.18-2.18,5.73-2.18,7.91,0l17.48,17.48c2.18,2.18,5.73,2.18,7.91,0l21.58-21.58c2.18-2.18,2.18-5.73,0-7.91l-17.48-17.48c-2.18-2.18-2.18-5.73,0-7.91l21.58-21.58c2.18-2.18,5.73-2.18,7.91,0l17.48,17.48c2.18,2.18,5.73,2.18,7.91,0l17.48-17.48c2.18-2.18,5.73-2.18,7.91,0l21.58,21.58c2.18,2.18,2.18,5.73,0,7.91Z"/>
              <rect class="cls-4" x="490.4" y="154.33" width="41.7" height="41.7" rx="5.59" ry="5.59" transform="translate(25.87 412.81) rotate(-45)"/>
              <rect class="cls-4" x="549.37" y="213.3" width="41.7" height="41.7" rx="5.59" ry="5.59" transform="translate(1.44 471.79) rotate(-45)"/>
              <rect class="cls-4" x="431.42" y="213.3" width="41.7" height="41.7" rx="5.59" ry="5.59" transform="translate(-33.11 388.39) rotate(-45)"/>
              <rect class="cls-4" x="490.4" y="272.28" width="41.7" height="41.7" rx="5.59" ry="5.59" transform="translate(-57.53 447.36) rotate(-45)"/>
            </g>
          </g>
          <g>
            <rect class="cls-3" x="-308.79" y="298.94" width="312.83" height="312.83" transform="translate(-366.62 25.63) rotate(-45)"/>
            <path class="cls-4" d="M-167.43,385.71c-38.45,38.45-38.45,100.8,0,139.25,38.45,38.45,100.8,38.45,139.25,0,38.45-38.45,38.45-100.8,0-139.25s-100.8-38.45-139.25,0ZM-48.48,460.51l21.58,21.58c1.67,1.67,2.1,4.19,1.12,6.34-3.81,8.32-9.14,16.12-15.98,22.96-6.88,6.88-14.71,12.22-23.08,16.03-2.14.97-4.66.54-6.32-1.13l-21.55-21.55c-2.18-2.18-5.73-2.18-7.91,0l-22.24,22.24c-1.64,1.64-4.1,2.08-6.23,1.17-9-3.84-17.42-9.44-24.74-16.76-6.38-6.38-11.44-13.6-15.2-21.3-1.06-2.17-.65-4.76,1.06-6.47l23.12-23.12c2.18-2.18,2.18-5.73,0-7.91l-23.88-23.88c-1.66-1.66-2.1-4.18-1.13-6.32,3.81-8.38,9.15-16.21,16.02-23.08,6.84-6.84,14.64-12.18,22.96-15.98,2.14-.98,4.67-.54,6.33,1.12l23.92,23.92c2.18,2.18,5.73,2.18,7.91,0l23.19-23.19c1.7-1.7,4.3-2.11,6.47-1.06,7.7,3.75,14.92,8.82,21.3,15.2,7.33,7.33,12.93,15.76,16.78,24.76.91,2.12.48,4.57-1.14,6.21-5.06,5.09-16.33,16.32-22.35,22.32-2.19,2.18-2.19,5.73,0,7.91Z"/>
          </g>
          <g>
            <rect class="cls-3" x="354.83" y="962.56" width="312.83" height="312.83" transform="translate(-641.5 689.25) rotate(-45)"/>
            <rect class="cls-4" x="535.66" y="1088.89" width="62.55" height="62.55" rx="5.59" ry="5.59" transform="translate(-626.02 728.97) rotate(-45)"/>
            <path class="cls-4" d="M496.19,1049.33c-38.45,38.45-38.45,100.8,0,139.25,38.45,38.45,100.8,38.45,139.25,0,38.45-38.45,38.45-100.8,0-139.25-38.45-38.45-100.8-38.45-139.25,0ZM615.14,1124.12l21.58,21.58c1.67,1.67,2.1,4.19,1.12,6.34-3.81,8.32-9.14,16.12-15.98,22.96-6.88,6.88-14.71,12.22-23.08,16.03-2.14.97-4.66.54-6.32-1.13l-21.55-21.55c-2.18-2.18-5.73-2.18-7.91,0l-22.24,22.24c-1.64,1.64-4.1,2.08-6.23,1.17-9-3.84-17.42-9.44-24.74-16.76-6.38-6.38-11.44-13.6-15.2-21.3-1.06-2.17-.65-4.76,1.06-6.47l23.12-23.12c2.18-2.18,2.18-5.73,0-7.91l-23.88-23.88c-1.66-1.66-2.1-4.18-1.13-6.32,3.81-8.38,9.15-16.21,16.02-23.08s14.64-12.18,22.96-15.98c2.14-.98,4.67-.54,6.33,1.12l23.92,23.92c2.18,2.18,5.73,2.18,7.91,0l23.19-23.19c1.7-1.7,4.3-2.11,6.47-1.06,7.7,3.75,14.92,8.82,21.3,15.2,7.33,7.33,12.93,15.76,16.78,24.76.91,2.12.48,4.57-1.14,6.21-5.06,5.09-16.33,16.32-22.35,22.32-2.19,2.18-2.19,5.73,0,7.91Z"/>
            <path class="cls-4" d="M471.86,1089.36c-6.38,20.34-6.03,42.36,1.13,62.54h-42.04c-3.09.01-5.6-2.49-5.6-5.58v-51.37c0-3.09,2.51-5.6,5.6-5.59h40.92Z"/>
            <path class="cls-4" d="M511.22,1037c-5.33,3.53-10.36,7.65-15.05,12.34-2.98,2.98-5.75,6.12-8.26,9.39v-8.81c0-2.36-1.48-4.45-3.69-5.27-8.58-3.2-17.88-4.92-27.55-4.92-9.71,0-19.04,1.76-27.64,4.99-2.2.83-3.67,2.92-3.67,5.27v33.77c-.01,3.09-2.52,5.59-5.61,5.59h-32.69c-2.41,0-4.54,1.55-5.32,3.83-2.79,8.11-4.31,16.79-4.31,25.8,0,10.37,2,20.27,5.64,29.35.86,2.15,2.91,3.58,5.23,3.58h31.45c3.09.01,5.59,2.52,5.59,5.61v30.46c0,2.35,1.47,4.44,3.68,5.27,8.62,3.24,17.93,5,27.67,4.99,9.67,0,18.95-1.74,27.52-4.93,2.21-.82,3.69-2.92,3.69-5.27v-8.84c2.53,3.29,5.28,6.41,8.28,9.4,4.69,4.69,9.72,8.81,15.05,12.34-15.6,10.42-34.36,16.49-54.55,16.51-55.75,0-100.67-46.32-98.38-102.58,2.13-52.23,45.71-94.15,97.99-94.36,20.33-.08,39.22,5.99,54.94,16.49Z"/>
          </g>
          <g>
            <rect class="cls-3" x="133.63" y="741.36" width="312.83" height="312.83" transform="translate(-549.87 468.04) rotate(-45)"/>
            <path class="cls-4" d="M335.19,999.8l5.68,5.68c2.18,2.18,2.18,5.73,0,7.91l-14.31,14.31c-20.17,20.17-52.87,20.17-73.04,0l-14.3-14.3c-2.18-2.18-2.18-5.73,0-7.91l5.68-5.68c2.18-2.18,5.73-2.18,7.91,0l14.3,14.3c12.66,12.66,33.2,12.66,45.86,0l14.31-14.31c2.18-2.18,5.73-2.18,7.91,0Z"/>
            <path class="cls-4" d="M397.74,846.97c2.18-2.18,5.73-2.18,7.91,0l14.3,14.3c20.16,20.16,20.18,52.86,0,73.04l-14.3,14.3c-2.18,2.18-5.73,2.18-7.91,0l-5.68-5.68c-2.18-2.18-2.18-5.73,0-7.91l14.3-14.3c12.62-12.62,12.62-33.27,0-45.89l-14.29-14.29c-2.18-2.18-2.18-5.73,0-7.91l5.66-5.66Z"/>
            <path class="cls-4" d="M326.54,767.86l14.3,14.3c2.18,2.18,2.18,5.73,0,7.91l-5.66,5.66c-2.18,2.18-5.73,2.18-7.91,0l-14.3-14.3c-12.66-12.66-33.2-12.66-45.86,0l-14.31,14.31c-2.18,2.18-5.73,2.18-7.91,0l-5.68-5.68c-2.18-2.18-2.18-5.73,0-7.91l14.3-14.3c20.18-20.18,52.87-20.16,73.04,0Z"/>
            <path class="cls-4" d="M182.34,846.94l5.68,5.68c2.18,2.18,2.18,5.73,0,7.91l-14.31,14.31c-12.66,12.66-12.66,33.2,0,45.86l14.3,14.3c2.18,2.18,2.18,5.73,0,7.91l-5.68,5.68c-2.18,2.18-5.73,2.18-7.91,0l-14.3-14.3c-20.17-20.17-20.17-52.87,0-73.04l14.31-14.31c2.18-2.18,5.73-2.18,7.91,0Z"/>
            <path class="cls-4" d="M315.51,866.38l5.93,5.93c2.18,2.18,2.18,5.73,0,7.91l-13.6,13.6c-2.18,2.18-2.18,5.73,0,7.91l13.6,13.6c2.18,2.18,2.18,5.73,0,7.91l-5.92,5.92c-2.18,2.18-5.73,2.18-7.91,0l-13.6-13.6c-2.18-2.18-5.73-2.18-7.91,0l-13.62,13.62c-2.18,2.18-5.73,2.18-7.91,0l-5.93-5.93c-2.18-2.18-2.18-5.73,0-7.91l13.62-13.62c2.18-2.18,2.18-5.73,0-7.91l-13.6-13.6c-2.18-2.18-2.18-5.73,0-7.91l5.92-5.92c2.18-2.18,5.73-2.18,7.91,0l13.6,13.6c2.18,2.18,5.73,2.18,7.91,0l13.6-13.6c2.18-2.18,5.73-2.18,7.91,0Z"/>
          </g>
          <g>
            <rect class="cls-3" x="-87.58" y="77.74" width="312.83" height="312.83" transform="translate(-145.41 117.26) rotate(-45)"/>
            <path class="cls-4" d="M113.99,336.18l5.68,5.68c2.18,2.18,2.18,5.73,0,7.91l-14.31,14.31c-20.17,20.17-52.87,20.17-73.04,0l-14.3-14.3c-2.18-2.18-2.18-5.73,0-7.91l5.68-5.68c2.18-2.18,5.73-2.18,7.91,0l14.3,14.3c12.66,12.66,33.2,12.66,45.86,0l14.31-14.31c2.18-2.18,5.73-2.18,7.91,0Z"/>
            <path class="cls-4" d="M176.53,183.35c2.18-2.18,5.73-2.18,7.91,0l14.3,14.3c20.16,20.16,20.18,52.86,0,73.04l-14.3,14.3c-2.18,2.18-5.73,2.18-7.91,0l-5.68-5.68c-2.18-2.18-2.18-5.73,0-7.91l14.3-14.3c12.62-12.62,12.62-33.27,0-45.89l-14.29-14.29c-2.18-2.18-2.18-5.73,0-7.91l5.66-5.66Z"/>
            <path class="cls-4" d="M105.34,104.24l14.3,14.3c2.18,2.18,2.18,5.73,0,7.91l-5.66,5.66c-2.18,2.18-5.73,2.18-7.91,0l-14.3-14.3c-12.66-12.66-33.2-12.66-45.86,0l-14.31,14.31c-2.18,2.18-5.73,2.18-7.91,0l-5.68-5.68c-2.18-2.18-2.18-5.73,0-7.91l14.3-14.3c20.18-20.18,52.87-20.16,73.04,0Z"/>
            <path class="cls-4" d="M94.3,202.76l5.93,5.93c2.18,2.18,2.18,5.73,0,7.91l-13.6,13.6c-2.18,2.18-2.18,5.73,0,7.91l13.6,13.6c2.18,2.18,2.18,5.73,0,7.91l-5.92,5.92c-2.18,2.18-5.73,2.18-7.91,0l-13.6-13.6c-2.18-2.18-5.73-2.18-7.91,0l-13.62,13.62c-2.18,2.18-5.73,2.18-7.91,0l-5.93-5.93c-2.18-2.18-2.18-5.73,0-7.91l13.62-13.62c2.18-2.18,2.18-5.73,0-7.91l-13.6-13.6c-2.18-2.18-2.18-5.73,0-7.91l5.92-5.92c2.18-2.18,5.73-2.18,7.91,0l13.6,13.6c2.18,2.18,5.73,2.18,7.91,0l13.6-13.6c2.18-2.18,5.73-2.18,7.91,0Z"/>
          </g>
          <rect class="cls-1" x="576.04" y="298.94" width="312.83" height="312.83" transform="translate(928.39 1295.27) rotate(-135)"/>
          <rect class="cls-1" x="-308.79" y="1183.77" width="312.83" height="312.83" transform="translate(-1207.76 2180.09) rotate(-135)"/>
          <rect class="cls-3" x="576.04" y="741.36" width="312.83" height="312.83" transform="translate(-420.29 780.87) rotate(-45)"/>
          <g>
            <rect class="cls-3" x="-87.58" y="520.15" width="312.83" height="312.83" transform="translate(-458.24 246.84) rotate(-45)"/>
            <path class="cls-4" d="M86.63,620.63l15.12,15.12c2.18,2.18,2.18,5.73,0,7.91l-5.93,5.93c-2.18,2.18-5.73,2.18-7.91,0l-15.82-15.82c-12.32-12.32-32.3-12.32-44.62,0l-35.76,35.76c-3.52,3.52-1.07,9.54,3.91,9.6h.03c3.1,0,5.6,2.5,5.61,5.58v8.4c0,3.1-2.49,5.6-5.6,5.6l-33.12-.02h-.03s-4.02,0-4.02,0l-4.21.02c-3.09-.02-5.58-2.51-5.6-5.6v-41.39c0-3.1,2.51-5.58,5.6-5.6h8.4c3.09.01,5.58,2.51,5.58,5.61v.03c-.06,4.99,5.97,7.54,9.5,4.01l35.15-35.15c20.36-20.36,53.37-20.36,73.72,0Z"/>
            <path class="cls-4" d="M51.2,732.43l-15.12-15.12c-2.18-2.18-2.18-5.73,0-7.91l5.93-5.93c2.18-2.18,5.73-2.18,7.91,0l15.82,15.82c12.32,12.32,32.3,12.32,44.62,0l35.66-35.66c3.52-3.52,1.07-9.54-3.91-9.6h-.03c-3.1,0-5.6-2.5-5.61-5.58v-8.4c0-3.1,2.49-5.6,5.6-5.6l33.12.02h.03s4.02,0,4.02,0l4.21-.02c3.09.02,5.58,2.51,5.6,5.6v41.39c0,3.1-2.51,5.58-5.6,5.6h-8.4c-3.09-.01-5.58-2.51-5.58-5.61v-.03c.06-4.99-5.97-7.54-9.5-4.01l-35.05,35.05c-20.36,20.36-53.37,20.36-73.72,0Z"/>
          </g>
          <g>
            <rect class="cls-3" x="133.63" y="1183.77" width="312.83" height="312.83" transform="translate(-862.7 597.62) rotate(-45)"/>
            <rect class="cls-4" x="269.24" y="1233.01" width="41.7" height="41.7" rx="5.59" ry="5.59" transform="translate(-801.65 572.37) rotate(-45)"/>
            <rect class="cls-4" x="280.28" y="1222.57" width="19.58" height="235.37" rx="5.59" ry="5.59" transform="translate(1032.66 187.44) rotate(45)"/>
            <rect class="cls-4" x="280.28" y="1222.57" width="19.58" height="235.37" rx="5.59" ry="5.59" transform="translate(1442.87 2082.84) rotate(135)"/>
          </g>
          <rect class="cls-3" x="354.83" y="-364.67" width="312.83" height="312.83" transform="translate(297 300.51) rotate(-45)"/>
          <g>
            <rect class="cls-3" x="133.63" y="-143.47" width="312.83" height="312.83" transform="translate(75.79 208.88) rotate(-45)"/>
            <g>
              <rect class="cls-4" x="332.01" y="-67.22" width="19.58" height="118.25" rx="5.59" ry="5.59" transform="translate(589.21 227.87) rotate(-135)"/>
              <rect class="cls-4" x="301.28" y="-97.95" width="19.58" height="118.25" rx="5.59" ry="5.59" transform="translate(558.48 153.68) rotate(-135)"/>
              <rect class="cls-4" x="362.74" y="-36.48" width="19.58" height="118.25" rx="5.59" ry="5.59" transform="translate(619.94 302.07) rotate(-135)"/>
              <path class="cls-4" d="M253.55-116.93l-39.82,39.73-9.72-9.72c-2.18-2.18-5.74-2.18-7.91,0l-5.93,5.93c-2.19,2.19-2.18,5.74,0,7.91l185.9,185.9c2.18,2.18,5.72,2.19,7.91,0l5.93-5.93c2.18-2.18,2.18-5.74,0-7.91l-9.69-9.69,39.77-39.77c20.18-20.18,20.16-52.87,0-73.04l-93.41-93.41c-20.16-20.16-52.86-20.18-73.04,0ZM406.41-9.97c12.63,12.63,12.61,33.28,0,45.89l-39.77,39.77L227.34-63.6l39.82-39.76c12.66-12.66,33.2-12.66,45.86,0L406.41-9.97Z"/>
              <g>
                <path class="cls-4" d="M299.64,141.19v8.64c0,3.79,3.71,6.57,7.29,5.33,7.17-2.48,13.91-6.58,19.63-12.29l25.39-25.39c2.18-2.18,2.19-5.72,0-7.91l-5.68-5.68c-2.18-2.18-5.74-2.18-7.91,0l-25.39,25.39c-2.92,2.92-6.27,5.17-9.85,6.74-2.08.91-3.48,2.9-3.48,5.18Z"/>
                <path class="cls-4" d="M239.22,128.56l14.3,14.3c5.72,5.72,12.45,9.81,19.61,12.28,3.58,1.23,7.29-1.55,7.29-5.33v-8.63c0-2.28-1.4-4.27-3.49-5.18-3.58-1.56-6.91-3.81-9.82-6.73l-14.3-14.3c-2.18-2.18-5.72-2.19-7.91,0l-5.68,5.68c-2.18,2.18-2.18,5.74,0,7.91Z"/>
                <path class="cls-4" d="M153.16,3.35h8.62c2.27,0,4.26-1.4,5.17-3.48,1.57-3.58,3.82-6.93,6.75-9.87l25.39-25.39c2.18-2.18,2.19-5.72,0-7.91l-5.68-5.68c-2.18-2.18-5.74-2.18-7.91,0l-25.39,25.39c-5.72,5.72-9.82,12.46-12.29,19.65-1.23,3.58,1.55,7.28,5.33,7.28Z"/>
                <path class="cls-4" d="M160.11,49.45l14.3,14.3c2.19,2.19,5.74,2.18,7.91,0l5.68-5.68c2.18-2.18,2.18-5.73,0-7.91l-14.3-14.3c-2.92-2.92-5.16-6.26-6.73-9.83-.92-2.08-2.9-3.47-5.17-3.47h-8.62c-3.9,0-6.54,3.87-5.25,7.56,2.49,7.06,6.55,13.69,12.19,19.33Z"/>
                <rect class="cls-4" x="204.11" y="79.91" width="18.56" height="19.37" rx="5.59" ry="5.59" transform="translate(-.85 177.14) rotate(-45)"/>
              </g>
            </g>
          </g>
        </g>
      </g>
    </g>
  </g>
</svg>