<?xml version="1.0" encoding="UTF-8"?>
<svg id="Capa_2" data-name="Capa 2" xmlns="http://www.w3.org/2000/svg" viewBox="0 0 1007.14 1007.14">
  <defs>
    <style>
      .cls-1 {
        fill: #ff0037;
      }

      .cls-2 {
        opacity: 0;
      }
    </style>
  </defs>
  <g id="Capa_2-2" data-name="Capa 2">
    <g>
      <g class="cls-2">
        <rect class="cls-1" width="1007.14" height="1007.14"/>
      </g>
      <line class="cls-1" x1="478.42" y1="550.83" x2="478.61" y2="550.97"/>
      <path class="cls-1" d="M560.41,392.01l-15.78,20.54c-5.78,7.52-4.69,18.19,2.44,24.46,8.19,7.21,15.9,14.93,23.1,23.11,6.27,7.13,16.95,8.22,24.48,2.43l20.54-15.81c8.2-6.31,9.48-18.28,2.68-26.08-9.75-11.2-20.23-21.68-31.38-31.36-7.81-6.78-19.77-5.48-26.07,2.72Z"/>
      <path class="cls-1" d="M778.53,62.36h-238.17c-91.82,0-166.26,74.44-166.26,166.26v65.97c0,9.47-7.35,17.29-16.8,17.92-169.25,11.34-302,155.79-294.65,329.5,6.89,162.98,139.52,295.61,302.5,302.5,173.71,7.34,318.16-125.4,329.5-294.65.63-9.45,8.45-16.8,17.92-16.8h65.96c91.82,0,166.26-74.44,166.26-166.26v-238.17c0-91.82-74.44-166.26-166.26-166.26ZM882.93,466.8c0,57.66-46.74,104.4-104.4,104.4h-73.69c-8.35,0-15.63-5.74-17.49-13.88-2.49-10.9-5.54-21.6-9.22-32.28-3.36-9.77-14.37-14.62-23.92-10.67l-23.77,9.82c-8.8,3.64-13.28,13.46-10.27,22.48l.25.76c3.9,11.69-4.8,23.76-17.12,23.76h-30.47c-9.95,0-18.01,8.06-18.01,18.01v25.84c0,9.95,8.06,18.01,18.01,18.01h41.55c10.51,0,18.97,8.99,17.98,19.45-12.79,135.38-132.11,240.25-273.01,229.69-124.44-9.32-225.11-110-234.42-234.44-10.54-140.89,94.32-260.2,229.7-272.99,10.47-.99,19.45,7.47,19.45,17.98v46.6c0,9.95,8.06,18.01,18.01,18.01h25.84c9.95,0,18.01-8.06,18.01-18.01v-35.51c0-12.34,12.11-21.05,23.81-17.11l.7.24c8.95,3.01,18.7-1.42,22.32-10.14l9.91-23.92c3.97-9.58-.92-20.6-10.72-23.98-7.99-2.75-21.86-6.33-32.3-8.87-8.07-1.97-13.72-9.19-13.72-17.49v-73.96c0-57.66,46.74-104.4,104.4-104.4h238.17c57.66,0,104.4,46.74,104.4,104.4v238.17Z"/>
      <path class="cls-1" d="M492.18,578.02l-10.29,23.76c-4.32,9.98-16.43,13.86-25.8,8.34-22.9-13.49-42.3-32.32-56.43-54.77-5.79-9.2-2.28-21.4,7.55-26.03l23.4-11.02c8.05-3.79,17.66-1.13,22.59,6.29,8.31,12.5,19.25,23.12,32.01,31.05,7.55,4.7,10.51,14.21,6.97,22.38Z"/>
    </g>
  </g>
</svg>