<?xml version="1.0" encoding="UTF-8"?>
<svg id="Capa_2" data-name="Capa 2" xmlns="http://www.w3.org/2000/svg" viewBox="0 0 1007.14 1007.14">
  <defs>
    <style>
      .cls-1 {
        fill: #ff0037;
      }

      .cls-2 {
        fill: #fff;
        opacity: 0;
      }
    </style>
  </defs>
  <g id="Capa_2-2" data-name="Capa 2">
    <g>
      <rect class="cls-2" width="1007.14" height="1007.14"/>
      <path class="cls-1" d="M374.09,838.62v25.84c0,9.95-8.06,18.01-18.01,18.01h-65.15c-91.82,0-166.26-74.44-166.26-166.26v-65.12c0-9.95,8.06-18.01,18.01-18.01h25.84c9.95,0,18.01,8.06,18.01,18.01v65.12c0,57.66,46.74,104.4,104.4,104.4h65.15c9.95,0,18.01,8.06,18.01,18.01Z"/>
      <path class="cls-1" d="M864.4,633.08c9.95,0,18.01,8.06,18.01,18.01v65.12c0,91.79-74.4,166.26-166.26,166.26h-65.09c-9.95,0-18.01-8.06-18.01-18.01v-25.84c0-9.95,8.06-18.01,18.01-18.01h65.09c57.46,0,104.47-47.01,104.47-104.47v-65.05c0-9.95,8.06-18.01,18.01-18.01h25.77Z"/>
      <path class="cls-1" d="M882.41,290.92v65.12c0,9.95-8.06,18.01-18.01,18.01h-25.77c-9.95,0-18.01-8.06-18.01-18.01v-65.12c0-57.66-46.74-104.4-104.4-104.4h-65.16c-9.95,0-18.01-8.06-18.01-18.01v-25.84c0-9.95,8.06-18.01,18.01-18.01h65.09c91.86,0,166.26,74.47,166.26,166.26Z"/>
      <path class="cls-1" d="M374.09,142.67v25.84c0,9.95-8.06,18.01-18.01,18.01h-65.15c-57.66,0-104.4,46.74-104.4,104.4v65.12c0,9.95-8.06,18.01-18.01,18.01h-25.84c-9.95,0-18.01-8.06-18.01-18.01v-65.12c0-91.82,74.44-166.26,166.26-166.26h65.15c9.95,0,18.01,8.06,18.01,18.01Z"/>
      <path class="cls-1" d="M633.01,490.07v27.02c0,9.95-8.06,18.01-18.01,18.01h-61.93c-9.95,0-18.01,8.06-18.01,18.01v61.93c0,9.95-8.06,18.01-18.01,18.01h-26.95c-9.95,0-18.01-8.06-18.01-18.01v-61.93c0-9.95-8.06-18.01-18.01-18.01h-62c-9.95,0-18.01-8.06-18.01-18.01v-27.02c0-9.95,8.06-18.01,18.01-18.01h62c9.95,0,18.01-8.06,18.01-18.01v-61.93c0-9.95,8.06-18.01,18.01-18.01h26.95c9.95,0,18.01,8.06,18.01,18.01v61.93c0,9.95,8.06,18.01,18.01,18.01h61.93c9.95,0,18.01,8.06,18.01,18.01Z"/>
    </g>
  </g>
</svg>