<?xml version="1.0" encoding="UTF-8"?>
<svg id="Capa_2" data-name="Capa 2" xmlns="http://www.w3.org/2000/svg" viewBox="0 0 146.38 146.38">
  <defs>
    <style>
      .cls-1 {
        fill: #ff0037;
      }

      .cls-2 {
        fill: #a0a0a0;
      }

      .cls-3 {
        fill: none;
        opacity: 0;
        stroke: #fff;
        stroke-miterlimit: 10;
      }
    </style>
  </defs>
  <g id="Capa_2-2" data-name="Capa 2">
    <g>
      <rect class="cls-3" x=".5" y=".5" width="145.38" height="145.38" transform="translate(0 146.38) rotate(-90)"/>
      <path class="cls-2" d="M127.88,121.76v3.8c0,1.44-1.16,2.6-2.6,2.6H21.1c-1.43,0-2.6-1.16-2.6-2.6v-3.8c0-1.44,1.17-2.6,2.6-2.6h12.8c1.44,0,2.6-1.16,2.6-2.6v-12.87c0-1.4-1.13-2.53-2.53-2.53h-.06c-1.44,0-2.6-1.16-2.6-2.6v-3.8c0-1.44,1.16-2.6,2.6-2.6h.06c1.4,0,2.53-1.13,2.53-2.53v-21.94c0-1.4-1.13-2.53-2.53-2.53h-.06c-1.44,0-2.6-1.16-2.6-2.6v-3.8c0-1.44,1.16-2.6,2.6-2.6h.06c1.4,0,2.53-1.13,2.53-2.53V21.1c0-1.44,1.16-2.6,2.6-2.6h3.8c1.44,0,2.6,1.16,2.6,2.6v32.53c0,1.4,1.13,2.53,2.53,2.53h.06c1.44,0,2.6,1.16,2.6,2.6v3.8c0,1.44-1.16,2.6-2.6,2.6h-.06c-1.4,0-2.53,1.13-2.53,2.53v21.94c0,1.4,1.13,2.53,2.53,2.53h.06c1.44,0,2.6,1.16,2.6,2.6v3.8c0,1.44-1.16,2.6-2.6,2.6h-.06c-1.4,0-2.53,1.13-2.53,2.53v12.87c0,1.44,1.17,2.6,2.6,2.6h17.99c1.44,0,2.6-1.16,2.6-2.6v-12.87c0-1.4-1.13-2.53-2.53-2.53h-.06c-1.44,0-2.6-1.16-2.6-2.6v-3.8c0-1.44,1.16-2.6,2.6-2.6h.06c1.4,0,2.53-1.13,2.53-2.53V21.1c0-1.44,1.16-2.6,2.6-2.6h3.8c1.44,0,2.6,1.16,2.6,2.6v68.53c0,1.4,1.13,2.53,2.53,2.53h.06c1.44,0,2.6,1.16,2.6,2.6v3.8c0,1.44-1.16,2.6-2.6,2.6h-.06c-1.4,0-2.53,1.13-2.53,2.53v12.87c0,1.44,1.17,2.6,2.6,2.6h17.99c1.44,0,2.6-1.16,2.6-2.6v-12.87c0-1.4-1.13-2.53-2.53-2.53h0c-1.44,0-2.6-1.16-2.6-2.6v-3.8c0-1.44,1.16-2.6,2.6-2.6h0c1.4,0,2.53-1.13,2.53-2.53v-21.94c0-1.4-1.13-2.53-2.53-2.53h0c-1.44,0-2.6-1.16-2.6-2.6v-3.8c0-1.44,1.16-2.6,2.6-2.6h0c1.4,0,2.53-1.13,2.53-2.53V21.1c0-1.44,1.16-2.6,2.6-2.6h3.8c1.44,0,2.6,1.16,2.6,2.6v32.53c0,1.4,1.13,2.53,2.53,2.53h.12c1.43,0,2.6,1.16,2.6,2.6v3.8c0,1.44-1.17,2.6-2.6,2.6h-.12c-1.4,0-2.53,1.13-2.53,2.53v21.94c0,1.4,1.13,2.53,2.53,2.53h.12c1.43,0,2.6,1.16,2.6,2.6v3.8c0,1.44-1.17,2.6-2.6,2.6h-.12c-1.4,0-2.53,1.13-2.53,2.53v12.87c0,1.44,1.17,2.6,2.6,2.6h12.8c1.44,0,2.6,1.16,2.6,2.6Z"/>
      <rect class="cls-1" x="31.31" y="110.16" width="19.38" height="9" rx="2.6" ry="2.6"/>
      <rect class="cls-1" x="31.31" y="74.16" width="19.38" height="9" rx="2.6" ry="2.6"/>
      <rect class="cls-1" x="31.31" y="38.16" width="19.38" height="9" rx="2.6" ry="2.6"/>
      <rect class="cls-1" x="63.5" y="110.16" width="19.38" height="9" rx="2.6" ry="2.6"/>
      <rect class="cls-1" x="63.5" y="74.16" width="19.38" height="9" rx="2.6" ry="2.6"/>
      <rect class="cls-1" x="95.75" y="74.16" width="19.38" height="9" rx="2.6" ry="2.6"/>
      <rect class="cls-1" x="95.75" y="110.16" width="19.38" height="9" rx="2.6" ry="2.6"/>
    </g>
  </g>
</svg>