<?xml version="1.0" encoding="UTF-8"?>
<svg id="Capa_2" data-name="Capa 2" xmlns="http://www.w3.org/2000/svg" viewBox="0 0 1014.06 1014.06">
  <defs>
    <style>
      .cls-1 {
        fill: #ff0037;
      }

      .cls-2 {
        fill: #a0a0a0;
      }

      .cls-3 {
        fill: none;
        opacity: 0;
        stroke: #fff;
        stroke-miterlimit: 10;
        stroke-width: 6.93px;
      }
    </style>
  </defs>
  <g id="Capa_2-2" data-name="Capa 2">
    <g>
      <rect class="cls-3" x="3.46" y="3.46" width="1007.14" height="1007.14" transform="translate(0 1014.06) rotate(-90)"/>
      <path class="cls-2" d="M885.9,808.26v26.33c0,9.95-8.06,18.01-18.01,18.01H146.17c-9.91,0-18.01-8.04-18.01-18.01v-26.32c0-9.98,8.11-18.01,18.01-18.01h88.67c9.95,0,18.01-8.06,18.01-18.01v-89.16c0-9.68-7.85-17.53-17.53-17.53h-.41c-9.95,0-18.01-8.06-18.01-18.01v-26.32c0-9.95,8.06-18.01,18.01-18.01h.41c9.68,0,17.53-7.85,17.53-17.53v-151.99c0-9.68-7.85-17.53-17.53-17.53h-.41c-9.95,0-18.01-8.06-18.01-18.01v-26.32c0-9.95,8.06-18.01,18.01-18.01h.41c9.68,0,17.53-7.85,17.53-17.53v-161.07c0-9.95,8.06-18.01,18.01-18.01h26.33c9.95,0,18.01,8.06,18.01,18.01v161.07c0,9.68,7.85,17.53,17.53,17.53h.42c9.95,0,18.01,8.06,18.01,18.01v26.32c0,9.95-8.06,18.01-18.01,18.01h-.42c-9.68,0-17.53,7.85-17.53,17.53v151.99c0,9.68,7.85,17.53,17.53,17.53h.42c9.95,0,18.01,8.06,18.01,18.01v26.32c0,9.95-8.06,18.01-18.01,18.01h-.42c-9.68,0-17.53,7.85-17.53,17.53v89.16c0,9.98,8.11,18.01,18.01,18.01h124.63c9.95,0,18.01-8.06,18.01-18.01v-89.16c0-9.68-7.85-17.53-17.53-17.53h-.42c-9.95,0-18.01-8.06-18.01-18.01v-26.32c0-9.95,8.06-18.01,18.01-18.01h.42c9.68,0,17.53-7.85,17.53-17.53V175.22c0-9.95,8.06-18.01,18.01-18.01h26.33c9.95,0,18.01,8.06,18.01,18.01v410.46c0,9.68,7.85,17.53,17.53,17.53h.42c9.95,0,18.01,8.06,18.01,18.01v26.33c0,9.95-8.06,18.01-18.01,18.01h-.41c-9.68,0-17.53,7.85-17.53,17.53v89.16c0,9.98,8.1,18.01,18.01,18.01h124.63c9.95,0,18.01-8.06,18.01-18.01v-89.16c0-9.68-7.85-17.53-17.53-17.53h0c-9.95,0-18.01-8.06-18.01-18.01v-26.32c0-9.95,8.06-18.01,18.01-18.01h0c9.68,0,17.53-7.85,17.53-17.53v-151.99c0-9.68-7.85-17.53-17.53-17.53h0c-9.95,0-18.01-8.06-18.01-18.01v-26.32c0-9.95,8.06-18.01,18.01-18.01h0c9.68,0,17.53-7.85,17.53-17.53v-161.07c0-9.95,8.06-18.01,18.01-18.01h26.33c9.95,0,18.01,8.06,18.01,18.01v161.07c0,9.68,7.85,17.53,17.53,17.53h.83c9.91,0,18.01,8.04,18.01,18.01v26.32c0,9.98-8.1,18.01-18.01,18.01h-.83c-9.68,0-17.53,7.85-17.53,17.53v151.99c0,9.68,7.85,17.53,17.53,17.53h.83c9.91,0,18.01,8.04,18.01,18.01v26.32c0,9.98-8.1,18.01-18.01,18.01h-.83c-9.68,0-17.53,7.85-17.53,17.53v89.16c0,9.98,8.1,18.01,18.01,18.01h88.68c9.95,0,18.01,8.06,18.01,18.01Z"/>
      <rect class="cls-1" x="216.91" y="727.9" width="134.26" height="62.35" rx="18.01" ry="18.01"/>
      <rect class="cls-1" x="216.91" y="478.5" width="134.26" height="62.35" rx="18.01" ry="18.01"/>
      <rect class="cls-1" x="216.91" y="229.11" width="134.26" height="62.35" rx="18.01" ry="18.01"/>
      <rect class="cls-1" x="439.9" y="727.9" width="134.26" height="62.35" rx="18.01" ry="18.01"/>
      <rect class="cls-1" x="439.9" y="478.5" width="134.26" height="62.35" rx="18.01" ry="18.01"/>
      <rect class="cls-1" x="663.3" y="478.5" width="134.26" height="62.35" rx="18.01" ry="18.01"/>
      <rect class="cls-1" x="663.3" y="727.9" width="134.26" height="62.35" rx="18.01" ry="18.01"/>
    </g>
  </g>
</svg>