<?xml version="1.0" encoding="UTF-8"?>
<svg id="Capa_2" data-name="Capa 2" xmlns="http://www.w3.org/2000/svg" viewBox="0 0 1007.14 1007.14">
  <defs>
    <style>
      .cls-1 {
        fill: #ff0037;
      }

      .cls-2 {
        fill: #a0a0a0;
      }

      .cls-3 {
        opacity: 0;
      }
    </style>
  </defs>
  <g id="Capa_2-2" data-name="Capa 2">
    <g>
      <g class="cls-3">
        <rect class="cls-1" width="1007.14" height="1007.14"/>
      </g>
      <path class="cls-1" d="M241.77,142.72v26.32c0,9.95-8.06,18.01-18.01,18.01h-81.05c-9.95,0-18.01,8.06-18.01,18.01v26.32c0,9.95-8.06,18.01-18.01,18.01h-26.32c-9.95,0-18.01-8.06-18.01-18.01V79.4c0-9.95,8.06-18.01,18.01-18.01h26.32c9.95,0,18.01,8.06,18.01,18.01v27.3c0,9.95,8.06,18.01,18.01,18.01h81.05c9.95,0,18.01,8.06,18.01,18.01Z"/>
      <path class="cls-1" d="M944.79,79.4v151.99c0,9.95-8.06,18.01-18.01,18.01h-26.32c-9.95,0-18.01-8.06-18.01-18.01v-26.32c0-9.95-8.06-18.01-18.01-18.01h-105.85c-9.95,0-18.01-8.06-18.01-18.01v-26.32c0-9.95,8.06-18.01,18.01-18.01h105.85c9.95,0,18.01-8.06,18.01-18.01v-27.3c0-9.95,8.06-18.01,18.01-18.01h26.32c9.95,0,18.01,8.06,18.01,18.01Z"/>
      <rect class="cls-1" x="347.7" y="62.31" width="311.74" height="187.05" rx="48.3" ry="48.3"/>
      <path class="cls-2" d="M806.23,436.45H200.9c-76.55,0-138.55,62-138.55,138.55v231.24c0,76.55,62,138.55,138.55,138.55h605.33c76.55,0,138.55-62,138.55-138.55v-231.24c0-76.55-62-138.55-138.55-138.55ZM882.92,806.24c0,42.18-34.51,76.69-76.69,76.69H200.9c-42.18,0-76.69-34.51-76.69-76.69v-231.24c0-42.35,34.33-76.69,76.69-76.69h4.09c9.95,0,18.01,8.06,18.01,18.01v162.04c0,9.95,8.06,18.01,18.01,18.01h26.32c9.95,0,18.01-8.06,18.01-18.01v-162.04c0-9.95,8.06-18.01,18.01-18.01h26.32c9.95,0,18.01,8.06,18.01,18.01v87.08c0,9.95,8.06,18.01,18.01,18.01h26.32c9.95,0,18.01-8.06,18.01-18.01v-87.08c0-9.95,8.06-18.01,18.01-18.01h26.32c9.95,0,18.01,8.06,18.01,18.01v162.04c0,9.95,8.06,18.01,18.01,18.01h26.32c9.95,0,18.01-8.06,18.01-18.01v-162.04c0-9.95,8.06-18.01,18.01-18.01h26.32c9.95,0,18.01,8.06,18.01,18.01v87.08c0,9.95,8.06,18.01,18.01,18.01h26.32c9.95,0,18.01-8.06,18.01-18.01v-87.08c0-9.95,8.06-18.01,18.01-18.01h26.32c9.95,0,18.01,8.06,18.01,18.01v162.04c0,9.95,8.06,18.01,18.01,18.01h26.32c9.95,0,18.01-8.06,18.01-18.01v-162.04c0-9.95,8.06-18.01,18.01-18.01h4.09c42.35,0,76.69,34.33,76.69,76.69v231.24Z"/>
      <path class="cls-1" d="M124.7,350.55v108.77c-37.62,24.73-62.35,67.33-62.35,115.69v-224.45c0-9.95,8.06-18.01,18.01-18.01h26.32c9.95,0,18.01,8.06,18.01,18.01Z"/>
      <path class="cls-1" d="M926.77,332.54c9.95,0,18.01,8.06,18.01,18.01v224.45c0-48.35-24.73-90.96-62.35-115.69v-108.77c0-9.95,8.06-18.01,18.01-18.01h26.32Z"/>
    </g>
  </g>
</svg>