<?xml version="1.0" encoding="UTF-8"?>
<svg id="Capa_2" data-name="Capa 2" xmlns="http://www.w3.org/2000/svg" viewBox="0 0 145.38 145.38">
  <defs>
    <style>
      .cls-1 {
        fill: #ff0037;
      }

      .cls-2, .cls-3 {
        fill: #a0a0a0;
      }

      .cls-3 {
        opacity: 0;
      }
    </style>
  </defs>
  <g id="Capa_2-2" data-name="Capa 2">
    <g>
      <rect class="cls-3" width="145.38" height="145.38"/>
      <g>
        <path class="cls-2" d="M124.78,109.18c1.44,0,2.6-1.16,2.6-2.6v-3.9c0-1.43-1.16-2.6-2.6-2.6H20.6c-1.44,0-2.6,1.17-2.6,2.6v3.9c0,1.44,1.16,2.6,2.6,2.6h15.4v9.1h-15.4c-1.44,0-2.6,1.16-2.6,2.6v3.9c0,1.43,1.16,2.6,2.6,2.6h104.18c1.44,0,2.6-1.17,2.6-2.6v-3.9c0-1.44-1.16-2.6-2.6-2.6h-15.4v-9.1h15.4ZM68.14,118.28h-23.04v-9.1h23.04v9.1ZM100.28,118.28h-23.04v-9.1h23.04v9.1Z"/>
        <path class="cls-1" d="M88.11,62.42c1.02,1.02,1.02,2.66,0,3.68l-10.89,10.88h-.01s-1.32,1.33-1.32,1.33l-1.38,1.39c-1.01,1.02-2.66,1.02-3.68,0l-2.71-2.71-10.89-10.89c-1.02-1.02-1.02-2.66,0-3.68l2.76-2.76c1.02-1.01,2.66-1.01,3.68,0h.01c1.64,1.65,4.44.49,4.44-1.82v-17.23c0-1.44,1.16-2.6,2.6-2.6h3.9c1.44,0,2.6,1.16,2.6,2.6v17.23c0,2.32,2.8,3.48,4.44,1.84h.01c1.01-1.03,2.66-1.03,3.68-.02l2.76,2.75Z"/>
        <g>
          <path class="cls-1" d="M24.54,31.04l2.82,2.82c.74.74.94,1.86.56,2.84-.66,1.69-1.02,3.54-1.02,5.46v9.4c0,1.44-1.17,2.6-2.6,2.6h-3.72c-1.44,0-2.6-1.16-2.6-2.6v-9.4c0-3.76.86-7.32,2.41-10.48.77-1.58,2.9-1.89,4.15-.64Z"/>
          <path class="cls-1" d="M53.97,20.76v3.73c0,1.44-1.16,2.6-2.6,2.6h-9.4c-1.93,0-3.76.36-5.45,1.02-.98.38-2.09.19-2.84-.56l-2.83-2.83c-1.24-1.24-.94-3.38.64-4.15,3.17-1.54,6.72-2.41,10.49-2.41h9.39c1.44,0,2.6,1.17,2.6,2.6Z"/>
          <path class="cls-1" d="M114.5,24.73l-2.83,2.83c-.75.75-1.86.94-2.84.56-1.69-.66-3.53-1.02-5.46-1.02h-9.41c-1.43,0-2.6-1.16-2.6-2.6v-3.73c0-1.43,1.17-2.6,2.6-2.6h9.41c3.76,0,7.32.87,10.5,2.42,1.58.77,1.88,2.9.64,4.15Z"/>
          <path class="cls-1" d="M127.36,42.16v9.4c0,1.44-1.17,2.6-2.6,2.6h-3.73c-1.44,0-2.6-1.16-2.6-2.6v-9.4c0-1.92-.36-3.76-1.02-5.44-.38-.98-.19-2.09.56-2.84l2.83-2.83c1.28-1.28,3.42-.88,4.21.76,1.5,3.14,2.35,6.65,2.35,10.36Z"/>
          <rect class="cls-1" x="68.11" y="18.22" width="9.09" height="9" rx="2.6" ry="2.6" transform="translate(49.94 95.37) rotate(-90)"/>
          <rect class="cls-1" x="17.93" y="68.48" width="9.09" height="9" rx="2.6" ry="2.6" transform="translate(-50.5 95.46) rotate(-90)"/>
          <rect class="cls-1" x="118.31" y="68.48" width="9.09" height="9" rx="2.6" ry="2.6" transform="translate(49.88 195.84) rotate(-90)"/>
        </g>
      </g>
    </g>
  </g>
</svg>