<svg width="48" height="48" version="1.1" xmlns="http://www.w3.org/2000/svg" xmlns:xlink="http://www.w3.org/1999/xlink" viewBox="0pt 0pt 48pt 48pt" fill-dark="#FFF" stroke-dark="none">
  <svg id="Capa_2" data-name="Capa 2" xmlns="http://www.w3.org/2000/svg" viewBox="0 0 109.38 127.38">
    <defs xmlns="http://www.w3.org/2000/svg">
      <style>
      .cls-1 {
        fill: #ff0037;
      }

      .cls-1, .cls-2 {
        stroke-width: 0px;
      }

      .cls-2 {
        fill: #a0a0a0;
      }
    </style>
    </defs>
    <g id="Capa_2-2" data-name="Capa 2" xmlns="http://www.w3.org/2000/svg">
      <g>
        <rect class="cls-1" x="74.06" y="46.31" width="9.1" height="54.95" rx="2.6" ry="2.6" transform="translate(4.83 152.4) rotate(-90)" />
        <rect class="cls-1" x="74.06" y="26.11" width="9.1" height="54.95" rx="2.6" ry="2.6" transform="translate(25.03 132.2) rotate(-90)" />
        <rect class="cls-1" x="74.06" y="66.5" width="9.1" height="54.95" rx="2.6" ry="2.6" transform="translate(-15.37 172.59) rotate(-90)" />
        <rect class="cls-1" x="74.06" y="4.91" width="9.1" height="54.95" rx="2.6" ry="2.6" transform="translate(46.22 111) rotate(-90)" />
        <path class="cls-1" d="M85.38,9.02l-26.14-.03V2.6c0-1.43-1.17-2.6-2.6-2.6h-3.9c-1.44,0-2.6,1.17-2.6,2.6v122.18c0,1.43,1.16,2.6,2.6,2.6h3.9c1.43,0,2.6-1.17,2.6-2.6v-6.37h26.14c13.26,0,24-10.75,24-24v-61.39c0-13.25-10.74-24-24-24ZM100.46,94.4c0,8.3-6.79,15.08-15.08,15.08h-26.14V17.93l26.15.02c8.32,0,15.07,6.75,15.07,15.07v61.38Z" />
        <g>
          <path class="cls-2" d="M15.71,108.98l-2.84,2.84c-1.24,1.24-.94,3.38.64,4.15,3.17,1.54,6.73,2.41,10.49,2.41h16.69c1.43,0,2.6-1.16,2.6-2.6v-3.73c0-1.43-1.17-2.6-2.6-2.6h-16.69c-1.92,0-3.76-.36-5.45-1.02-.98-.38-2.1-.19-2.84.56Z" />
          <path class="cls-2" d="M0,84.98v9.4c0,3.76.87,7.31,2.41,10.48.77,1.58,2.9,1.89,4.15.64l2.83-2.83c.75-.75.94-1.86.56-2.85-.66-1.69-1.02-3.52-1.02-5.44v-9.4c0-1.43-1.16-2.6-2.6-2.6h-3.73c-1.43,0-2.6,1.17-2.6,2.6Z" />
          <path class="cls-2" d="M12.86,15.55l2.83,2.83c.75.75,1.86.94,2.84.56,1.69-.66,3.53-1.02,5.46-1.02h16.69c1.43,0,2.6-1.16,2.6-2.6v-3.73c0-1.43-1.17-2.6-2.6-2.6h-16.69c-3.76,0-7.32.87-10.5,2.42-1.58.77-1.88,2.9-.64,4.15Z" />
          <path class="cls-2" d="M0,32.99v9.4c0,1.44,1.17,2.6,2.6,2.6h3.73c1.44,0,2.6-1.16,2.6-2.6v-9.4c0-1.92.36-3.76,1.02-5.44.38-.98.19-2.09-.56-2.84l-2.83-2.83c-1.28-1.28-3.42-.88-4.21.76-1.5,3.14-2.35,6.65-2.35,10.36Z" />
          <rect class="cls-2" x="0" y="59.19" width="8.63" height="9" rx="2.6" ry="2.6" />
        </g>
      </g>
    </g>
  </svg>
</svg>