<?xml version="1.0" encoding="UTF-8"?>
<svg id="Capa_2" data-name="Capa 2" xmlns="http://www.w3.org/2000/svg" viewBox="0 0 393.63 87.76">
  <defs>
    <style>
      .cls-1 {
        fill: #fff;
        stroke-width: 0px;
      }
    </style>
  </defs>
  <g id="Capa_2-2" data-name="Capa 2">
    <g>
      <path class="cls-1" d="M86.55,42.43v5.8c0,11.6-3.83,21.09-11.48,28.47-7.66,7.37-17.65,11.06-29.98,11.06-13.06,0-23.83-4.23-32.34-12.69C4.25,66.61,0,56.21,0,43.88S4.25,21.26,12.75,12.75C21.26,4.25,31.79,0,44.36,0c7.9,0,15.11,1.81,21.64,5.44,6.53,3.63,11.6,8.5,15.23,14.63l-11.97,6.89c-2.26-4.03-5.6-7.27-10.03-9.73-4.43-2.46-9.39-3.69-14.87-3.69-8.87,0-16.16,2.9-21.88,8.7-5.72,5.8-8.58,13.06-8.58,21.76s2.88,15.92,8.64,21.64c5.76,5.72,13.32,8.58,22.67,8.58,7.49,0,13.6-1.75,18.31-5.26,4.71-3.51,7.72-8.2,9.01-14.08h-28.29v-12.45h42.31Z"/>
      <path class="cls-1" d="M127.9,24.18c6.93,0,12.53,2.22,16.8,6.65,4.27,4.43,6.41,10.52,6.41,18.25v37.11h-13.06v-35.78c0-4.51-1.21-7.98-3.63-10.4-2.42-2.42-5.72-3.63-9.91-3.63-4.59,0-8.3,1.43-11.12,4.29-2.82,2.86-4.23,7.23-4.23,13.12v32.4h-13.06V25.75h13.06v7.74c3.95-6.2,10.19-9.31,18.74-9.31Z"/>
      <path class="cls-1" d="M173.11,61.53c.97,4.59,3.18,8.12,6.65,10.58,3.46,2.46,7.7,3.69,12.69,3.69,6.93,0,12.13-2.5,15.59-7.49l10.76,6.29c-5.97,8.78-14.79,13.18-26.47,13.18-9.83,0-17.77-3-23.81-9.01-6.04-6-9.07-13.6-9.07-22.79s2.98-16.58,8.95-22.67c5.96-6.08,13.62-9.13,22.97-9.13,8.86,0,16.14,3.1,21.82,9.31,5.68,6.21,8.52,13.74,8.52,22.61,0,1.37-.16,3.18-.48,5.44h-48.11ZM172.99,50.89h35.54c-.89-4.91-2.92-8.62-6.1-11.12-3.18-2.5-6.91-3.75-11.18-3.75-4.84,0-8.87,1.33-12.09,3.99-3.22,2.66-5.28,6.29-6.16,10.88Z"/>
      <path class="cls-1" d="M243.94,35.9c3.3-7.49,9.51-11.24,18.62-11.24v14.14c-5-.32-9.35.87-13.06,3.57-3.71,2.7-5.56,7.15-5.56,13.36v30.46h-13.06V25.75h13.06v10.15Z"/>
      <path class="cls-1" d="M282.54,80.12h17.71v6.84h-24.86v-43.5h7.15v36.66Z"/>
      <path class="cls-1" d="M327.53,55.89h6.71v31.07h-6.71v-4.47c-2.53,3.52-6.15,5.28-10.87,5.28-4.27,0-7.91-1.58-10.94-4.75-3.02-3.17-4.54-7.03-4.54-11.59s1.51-8.47,4.54-11.62c3.02-3.15,6.67-4.72,10.94-4.72,4.72,0,8.35,1.74,10.87,5.22v-4.41ZM310.69,78.53c1.86,1.89,4.2,2.83,7.02,2.83s5.16-.94,7.02-2.83c1.86-1.88,2.8-4.26,2.8-7.11s-.93-5.23-2.8-7.11c-1.86-1.88-4.21-2.83-7.02-2.83s-5.16.94-7.02,2.83c-1.86,1.89-2.8,4.26-2.8,7.11s.93,5.23,2.8,7.11Z"/>
      <path class="cls-1" d="M358.47,55.08c4.27,0,7.91,1.57,10.94,4.72,3.02,3.15,4.54,7.02,4.54,11.62s-1.51,8.42-4.54,11.59c-3.02,3.17-6.67,4.75-10.94,4.75-4.72,0-8.35-1.76-10.87-5.28v4.47h-6.71v-43.5h6.71v16.84c2.53-3.48,6.15-5.22,10.87-5.22ZM350.39,78.53c1.86,1.89,4.2,2.83,7.02,2.83s5.16-.94,7.02-2.83c1.86-1.88,2.8-4.26,2.8-7.11s-.93-5.23-2.8-7.11c-1.86-1.88-4.21-2.83-7.02-2.83s-5.16.94-7.02,2.83c-1.86,1.89-2.8,4.26-2.8,7.11s.93,5.23,2.8,7.11Z"/>
      <path class="cls-1" d="M383.08,45.05v1.58h-2.82v8.45h-1.65v-8.45h-2.84v-1.58h7.31Z"/>
      <path class="cls-1" d="M393.63,45.05v10.03h-1.65v-7.15l-3.05,5.04h-.2s-3.05-5.06-3.05-5.06v7.16h-1.65v-10.03h1.78l3.03,5.01,3.03-5.01h1.76Z"/>
    </g>
  </g>
</svg>