<?xml version="1.0" encoding="UTF-8"?>
<svg id="Capa_2" data-name="Capa 2" xmlns="http://www.w3.org/2000/svg" viewBox="0 0 1007.14 1007.14">
  <defs>
    <style>
      .cls-1 {
        fill: #ff0037;
      }

      .cls-2 {
        fill: #fff;
        opacity: 0;
      }
    </style>
  </defs>
  <g id="Capa_2-2" data-name="Capa 2">
    <g>
      <rect class="cls-2" width="1007.14" height="1007.14"/>
      <g>
        <rect class="cls-1" x="436.44" y="436.44" width="134.26" height="134.26" rx="18.01" ry="18.01"/>
        <path class="cls-1" d="M716.18,124.71h-425.22c-91.86,0-166.26,74.4-166.26,166.26v425.22c0,91.79,74.4,166.26,166.26,166.26h425.22c91.79,0,166.26-74.47,166.26-166.26v-425.22c0-91.86-74.47-166.26-166.26-166.26ZM802.57,436.45h-79.6c-9.95,0-18.01,8.06-18.01,18.01v98.24c0,9.95,8.06,18.01,18.01,18.01h79.6c9.95,0,18.01,8.06,18.01,18.01v98.23c0,9.95-8.06,18.01-18.01,18.01h-79.6c-9.95,0-18.01,8.06-18.01,18.01v79.6c0,9.95-8.06,18.01-18.01,18.01h-98.23c-9.95,0-18.01-8.06-18.01-18.01v-79.6c0-9.95-8.06-18.01-18.01-18.01h-98.23c-9.95,0-18.01,8.06-18.01,18.01v79.6c0,9.95-8.06,18.01-18.01,18.01h-98.23c-9.95,0-18.01-8.06-18.01-18.01v-79.6c0-9.95-8.06-18.01-18.01-18.01h-79.6c-9.95,0-18.01-8.06-18.01-18.01v-98.23c0-9.95,8.06-18.01,18.01-18.01h79.6c9.95,0,18.01-8.06,18.01-18.01v-98.24c0-9.95-8.06-18.01-18.01-18.01h-79.6c-9.95,0-18.01-8.06-18.01-18.01v-98.23c0-9.95,8.06-18.01,18.01-18.01h79.6c9.95,0,18.01-8.06,18.01-18.01v-79.6c0-9.95,8.06-18.01,18.01-18.01h98.23c9.95,0,18.01,8.06,18.01,18.01v79.6c0,9.95,8.06,18.01,18.01,18.01h98.23c9.95,0,18.01-8.06,18.01-18.01v-79.6c0-9.95,8.06-18.01,18.01-18.01h98.23c9.95,0,18.01,8.06,18.01,18.01v79.6c0,9.95,8.06,18.01,18.01,18.01h79.6c9.95,0,18.01,8.06,18.01,18.01v98.23c0,9.95-8.06,18.01-18.01,18.01Z"/>
        <rect class="cls-1" x="570.7" y="302.18" width="134.26" height="134.26" rx="18.01" ry="18.01"/>
        <rect class="cls-1" x="570.7" y="570.7" width="134.26" height="134.26" rx="18.01" ry="18.01"/>
        <rect class="cls-1" x="302.18" y="302.18" width="134.26" height="134.26" rx="18.01" ry="18.01"/>
        <rect class="cls-1" x="302.18" y="570.7" width="134.26" height="134.26" rx="18.01" ry="18.01"/>
      </g>
    </g>
  </g>
</svg>