<?xml version="1.0" encoding="UTF-8"?>
<svg id="Capa_2" data-name="Capa 2" xmlns="http://www.w3.org/2000/svg" viewBox="0 0 1007.14 1007.14">
  <defs>
    <style>
      .cls-1 {
        fill: #ff0037;
      }

      .cls-2 {
        fill: none;
      }

      .cls-3 {
        fill: #fff;
        opacity: 0;
      }

      .cls-4 {
        fill: #a0a0a0;
      }
    </style>
  </defs>
  <g id="Capa_2-2" data-name="Capa 2">
    <g>
      <rect class="cls-3" width="1007.14" height="1007.14"/>
      <circle class="cls-2" cx="627.77" cy="627.76" r="317.01"/>
      <path class="cls-1" d="M859.85,733.74c-.14.35-.28.69-.42.97.21-.35.35-.62.49-.97h-.07Z"/>
      <path class="cls-1" d="M859.92,733.74c-.14.35-.28.62-.49.97.14-.27.28-.62.42-.97h.07Z"/>
      <rect class="cls-1" x="526.95" y="532.35" width="201.39" height="201.39" rx="18.01" ry="18.01"/>
      <path class="cls-1" d="M627.85,310.74c-175.06,0-317.01,141.94-317.01,317.01s141.95,317.01,317.01,317.01,317.01-141.95,317.01-317.01-141.95-317.01-317.01-317.01ZM728.37,751.79v98.24c0,7.59-4.76,14.33-11.87,16.97-27.61,10.28-57.49,15.88-88.65,15.88s-61.29-5.66-89.03-16.07c-7.09-2.66-11.83-9.39-11.83-16.96v-98.11c0-9.95-8.06-18.01-18.01-18.01h-101.26c-7.45,0-14.06-4.61-16.83-11.51-11.75-29.23-18.17-61.15-18.17-94.48,0-29.04,4.9-57,13.89-83.08,2.53-7.33,9.37-12.31,17.13-12.31h105.25c9.95,0,18.01-8.06,18.01-18.01v-108.71c0-7.57,4.74-14.3,11.83-16.96,27.74-10.4,57.72-16.07,89.03-16.07s61.05,5.6,88.65,15.88c7.11,2.65,11.87,9.39,11.87,16.97v108.88c0,9.95,8.06,18.01,18.01,18.01h105.59c7.76,0,14.6,4.98,17.13,12.31,8.99,26.08,13.89,54.04,13.89,83.08,0,33.37-6.44,65.32-18.17,94.58-2.77,6.9-9.31,11.51-16.75,11.54-23.11.07-74.34-.02-101.68-.08-9.96-.02-18.02,8.05-18.02,18.01Z"/>
      <path class="cls-4" d="M481.33,346.49c-60.82,31.8-110.15,82.71-139.8,144.92l-95.74-95.68c-7.04-7.03-7.04-18.44,0-25.48l116.95-116.95c7.04-7.04,18.44-7.03,25.48,0l93.12,93.18Z"/>
      <path class="cls-4" d="M690.13,316.9c-20.16-4.09-41.01-6.16-62.35-6.16-13.58,0-27.02.83-40.18,2.56l20.05-20.05c5.36-5.36,6.76-13.5,3.61-20.4-12.27-26.82-29.48-51.9-51.51-73.93-22.11-22.1-47.33-39.34-74.3-51.56-6.89-3.12-14.99-1.72-20.34,3.63l-76.9,76.85c-7.03,7.03-18.44,7.03-25.47,0l-74.42-74.42c-5.49-5.49-13.85-6.8-20.83-3.4-24.81,12.1-48.04,28.42-68.53,48.92-23.6,23.6-41.59,50.71-53.96,79.66-2.93,6.85-1.51,14.78,3.75,20.05l71.57,71.62c7.03,7.03,7.03,18.44,0,25.47l-69.34,69.35c-5.35,5.35-6.76,13.46-3.63,20.36,12.26,27,29.45,52.19,51.62,74.36,22.02,22.02,47.1,39.18,73.86,51.43,6.9,3.16,15.03,1.76,20.4-3.61l20.11-20.11c-1.73,13.23-2.56,26.6-2.56,40.25,0,21.34,2.08,42.19,6.16,62.35-59.23-11.77-115.76-40.67-161.76-86.59-126.9-126.91-123.72-334.62,9.56-457.46,123.75-114.06,318.39-110.26,437.87,8.26,46.47,46.09,75.66,102.92,87.52,162.61Z"/>
    </g>
  </g>
</svg>