<?xml version="1.0" encoding="UTF-8"?>
<svg id="Capa_2" data-name="Capa 2" xmlns="http://www.w3.org/2000/svg" viewBox="0 0 1014.06 1014.06">
  <defs>
    <style>
      .cls-1 {
        fill: #ff0037;
      }

      .cls-2 {
        fill: #a0a0a0;
      }

      .cls-3 {
        fill: none;
        opacity: 0;
        stroke: #fff;
        stroke-miterlimit: 10;
        stroke-width: 6.93px;
      }
    </style>
  </defs>
  <g id="Capa_2-2" data-name="Capa 2">
    <g>
      <rect class="cls-3" x="3.46" y="3.46" width="1007.14" height="1007.14" transform="translate(0 1014.06) rotate(-90)"/>
      <path class="cls-2" d="M777.06,820.82l19.66,19.66c8.62,8.62,6.5,23.4-4.46,28.73-21.96,10.69-46.63,16.69-72.66,16.69h-65.19c-9.91,0-18.01-8.04-18.01-18.01v-25.84c0-9.91,8.11-18.01,18.01-18.01h65.19c13.3,0,26.04-2.51,37.76-7.08,6.82-2.66,14.53-1.31,19.7,3.86Z"/>
      <path class="cls-2" d="M885.86,654.53v65.12c0,26.03-6,50.66-16.69,72.6-5.34,10.96-20.11,13.07-28.73,4.45l-19.64-19.64c-5.18-5.18-6.52-12.91-3.85-19.73,4.58-11.7,7.05-24.4,7.05-37.69v-65.12c0-9.91,8.04-18.01,18.01-18.01h25.84c9.91,0,18.01,8.1,18.01,18.01Z"/>
      <path class="cls-1" d="M146.11,636.54c-9.95,0-18.01,8.06-18.01,18.01v65.12c0,91.79,74.4,166.26,166.26,166.26h65.09c9.95,0,18.01-8.06,18.01-18.01v-25.84c0-9.95-8.06-18.01-18.01-18.01h-65.09c-57.46,0-104.47-47.01-104.47-104.47v-65.05c0-9.95-8.06-18.01-18.01-18.01h-25.77Z"/>
      <path class="cls-2" d="M173.52,217.29l19.57,19.57c5.16,5.16,6.52,12.85,3.88,19.66-4.54,11.73-7.06,24.49-7.06,37.85v65.12c0,9.98-8.1,18.01-18.01,18.01h-25.77c-9.95,0-18.01-8.06-18.01-18.01v-65.12c0-26.04,5.97-50.68,16.68-72.63,5.34-10.95,20.11-13.06,28.73-4.45Z"/>
      <path class="cls-2" d="M377.45,146.11v25.84c0,9.95-8.06,18.01-18.01,18.01h-65.12c-13.35,0-26.06,2.51-37.77,7.05-6.81,2.64-14.5,1.29-19.67-3.88l-19.62-19.62c-8.62-8.62-6.5-23.39,4.46-28.73,21.94-10.69,46.59-16.69,72.67-16.69h65.05c9.98,0,18.01,8.1,18.01,18.01Z"/>
      <path class="cls-2" d="M796.75,173.57l-19.62,19.62c-5.17,5.17-12.88,6.52-19.7,3.86-11.73-4.57-24.48-7.08-37.84-7.08h-65.19c-9.91,0-18.01-8.04-18.01-18.01v-25.84c0-9.91,8.11-18.01,18.01-18.01h65.19c26.05,0,50.74,6.01,72.71,16.74,10.94,5.35,13.05,20.11,4.44,28.73Z"/>
      <path class="cls-2" d="M885.86,294.36v65.12c0,9.98-8.1,18.01-18.01,18.01h-25.84c-9.95,0-18.01-8.06-18.01-18.01v-65.12c0-13.28-2.51-26.01-7.04-37.7-2.64-6.81-1.29-14.51,3.87-19.68l19.63-19.63c8.89-8.89,23.72-6.08,29.14,5.26,10.4,21.73,16.25,46.06,16.25,71.76Z"/>
      <rect class="cls-2" x="698.65" y="475.87" width="187.19" height="62.35" rx="18.01" ry="18.01"/>
      <rect class="cls-1" x="128.1" y="475.87" width="186.97" height="62.35" rx="18.01" ry="18.01"/>
      <rect class="cls-2" x="475.69" y="128.13" width="62.35" height="187.13" rx="18.01" ry="18.01"/>
      <rect class="cls-1" x="475.69" y="698.83" width="62.35" height="187.1" rx="18.01" ry="18.01"/>
      <path class="cls-2" d="M475.69,395.64v124.56c0,9.95,8.06,18.01,18.01,18.01h124.56c9.95,0,18.01-8.06,18.01-18.01v-26.33c0-9.95-8.06-18.01-18.01-18.01h-62.21c-9.95,0-18.01-8.06-18.01-18.01v-62.21c0-9.95-8.06-18.01-18.01-18.01h-26.33c-9.91,0-18.01,8.1-18.01,18.01Z"/>
      <path class="cls-1" d="M377.53,493.88v26.33c0,9.95,8.06,18.01,18.01,18.01h62.14c9.95,0,18.01,8.06,18.01,18.01v62.21c0,9.98,8.1,18.01,18.01,18.01h26.33c9.95,0,18.01-8.06,18.01-18.01v-124.56c0-9.95-8.06-18.01-18.01-18.01h-124.49c-9.95,0-18.01,8.06-18.01,18.01Z"/>
    </g>
  </g>
</svg>