<?xml version="1.0" encoding="UTF-8"?>
<svg id="Capa_2" data-name="Capa 2" xmlns="http://www.w3.org/2000/svg" viewBox="0 0 1014.06 1014.06">
  <defs>
    <style>
      .cls-1 {
        fill: #ff0037;
      }

      .cls-2 {
        fill: #a0a0a0;
      }

      .cls-3 {
        fill: none;
        opacity: 0;
        stroke: #fff;
        stroke-miterlimit: 10;
        stroke-width: 6.93px;
      }
    </style>
  </defs>
  <g id="Capa_2-2" data-name="Capa 2">
    <g>
      <rect class="cls-3" x="3.46" y="3.46" width="1007.14" height="1007.14"/>
      <path class="cls-2" d="M613.97,276.63c7.05,7.03,7.05,18.45,0,25.49l-75.43,75.37-.07.07-9.14,9.14-9.57,9.6c-7.03,7.05-18.45,7.06-25.49.02l-18.76-18.76-75.44-75.45c-7.04-7.04-7.03-18.45.01-25.48l19.12-19.09c7.04-7.02,18.43-7.02,25.46.01l.1.1c11.35,11.35,30.75,3.31,30.75-12.74v-107.79c0-9.95,8.06-18.01,18.01-18.01h27.02c9.95,0,18.01,8.06,18.01,18.01v107.79c0,16.05,19.4,24.08,30.75,12.74l.1-.1c7.03-7.03,18.43-7.03,25.46-.01l19.12,19.09Z"/>
      <path class="cls-1" d="M400.08,737.43c-7.05-7.03-7.05-18.45,0-25.49l75.43-75.37.07-.07,9.14-9.14,9.57-9.6c7.03-7.05,18.45-7.06,25.49-.02l18.76,18.76,75.44,75.45c7.04,7.04,7.03,18.45-.01,25.48l-19.12,19.09c-7.04,7.02-18.43,7.02-25.46-.01l-.1-.1c-11.35-11.35-30.75-3.31-30.75,12.74v98.78c0,9.95-8.06,18.01-18.01,18.01h-27.02c-9.95,0-18.01-8.06-18.01-18.01v-98.78c0-16.05-19.4-24.08-30.75-12.74l-.1.1c-7.03,7.03-18.43,7.03-25.46.01l-19.12-19.09Z"/>
      <rect class="cls-1" x="475.52" y="128.16" width="63.03" height="757.74" rx="18.01" ry="18.01" transform="translate(1014.06 0) rotate(90)"/>
    </g>
  </g>
</svg>