<?xml version="1.0" encoding="UTF-8"?>
<svg id="Capa_2" data-name="Capa 2" xmlns="http://www.w3.org/2000/svg" viewBox="0 0 146.38 146.38">
  <defs>
    <style>
      .cls-1 {
        fill: #ff0037;
      }

      .cls-2 {
        fill: #a0a0a0;
      }

      .cls-3 {
        fill: none;
        opacity: 0;
        stroke: #fff;
        stroke-miterlimit: 10;
      }
    </style>
  </defs>
  <g id="Capa_2-2" data-name="Capa 2">
    <g>
      <rect class="cls-3" x=".5" y=".5" width="145.38" height="145.38"/>
      <path class="cls-2" d="M88.63,39.93c1.02,1.02,1.02,2.66,0,3.68l-10.89,10.88h-.01s-1.32,1.33-1.32,1.33l-1.38,1.39c-1.01,1.02-2.66,1.02-3.68,0l-2.71-2.71-10.89-10.89c-1.02-1.02-1.02-2.66,0-3.68l2.76-2.76c1.02-1.01,2.66-1.01,3.68,0h.01c1.64,1.65,4.44.49,4.44-1.82V12.1c0-1.44,1.16-2.6,2.6-2.6h3.9c1.44,0,2.6,1.16,2.6,2.6v23.25c0,2.32,2.8,3.48,4.44,1.84h.01c1.01-1.03,2.66-1.03,3.68-.02l2.76,2.75Z"/>
      <path class="cls-1" d="M57.75,106.45c-1.02-1.02-1.02-2.66,0-3.68l10.89-10.88h.01s1.32-1.33,1.32-1.33l1.38-1.39c1.01-1.02,2.66-1.02,3.68,0l2.71,2.71,10.89,10.89c1.02,1.02,1.02,2.66,0,3.68l-2.76,2.76c-1.02,1.01-2.66,1.01-3.68,0h-.01c-1.64-1.65-4.44-.49-4.44,1.82v23.26c0,1.44-1.16,2.6-2.6,2.6h-3.9c-1.44,0-2.6-1.16-2.6-2.6v-23.26c0-2.32-2.8-3.48-4.44-1.84h-.01c-1.01,1.03-2.66,1.03-3.68.02l-2.76-2.75Z"/>
      <rect class="cls-1" x="68.64" y="18.5" width="9.1" height="109.38" rx="2.6" ry="2.6" transform="translate(146.38 0) rotate(90)"/>
    </g>
  </g>
</svg>