<?xml version="1.0" encoding="UTF-8"?>
<svg id="Capa_2" data-name="Capa 2" xmlns="http://www.w3.org/2000/svg" viewBox="0 0 146.38 146.38">
  <defs>
    <style>
      .cls-1 {
        fill: none;
        opacity: 0;
        stroke: #fff;
        stroke-miterlimit: 10;
      }

      .cls-2 {
        fill: #ff0037;
      }

      .cls-2, .cls-3 {
        stroke-width: 0px;
      }

      .cls-3 {
        fill: #a0a0a0;
      }
    </style>
  </defs>
  <g id="Capa_2-2" data-name="Capa 2">
    <g>
      <rect class="cls-1" x=".5" y=".5" width="145.38" height="145.38" transform="translate(0 146.38) rotate(-90)"/>
      <path class="cls-3" d="M112.17,118.49l2.84,2.84c1.24,1.24.94,3.38-.64,4.15-3.17,1.54-6.73,2.41-10.49,2.41h-9.41c-1.43,0-2.6-1.16-2.6-2.6v-3.73c0-1.43,1.17-2.6,2.6-2.6h9.41c1.92,0,3.76-.36,5.45-1.02.98-.38,2.1-.19,2.84.56Z"/>
      <path class="cls-3" d="M127.87,94.48v9.4c0,3.76-.87,7.31-2.41,10.48-.77,1.58-2.9,1.89-4.15.64l-2.83-2.83c-.75-.75-.94-1.86-.56-2.85.66-1.69,1.02-3.52,1.02-5.44v-9.4c0-1.43,1.16-2.6,2.6-2.6h3.73c1.43,0,2.6,1.17,2.6,2.6Z"/>
      <path class="cls-2" d="M21.09,91.89c-1.44,0-2.6,1.16-2.6,2.6v9.4c0,13.25,10.74,24,24,24h9.4c1.44,0,2.6-1.16,2.6-2.6v-3.73c0-1.44-1.16-2.6-2.6-2.6h-9.4c-8.29,0-15.08-6.79-15.08-15.08v-9.39c0-1.44-1.16-2.6-2.6-2.6h-3.72Z"/>
      <path class="cls-3" d="M25.05,31.37l2.82,2.82c.74.74.94,1.86.56,2.84-.66,1.69-1.02,3.54-1.02,5.46v9.4c0,1.44-1.17,2.6-2.6,2.6h-3.72c-1.44,0-2.6-1.16-2.6-2.6v-9.4c0-3.76.86-7.32,2.41-10.48.77-1.58,2.9-1.89,4.15-.64Z"/>
      <path class="cls-3" d="M54.48,21.09v3.73c0,1.44-1.16,2.6-2.6,2.6h-9.4c-1.93,0-3.76.36-5.45,1.02-.98.38-2.09.19-2.84-.56l-2.83-2.83c-1.24-1.24-.94-3.38.64-4.15,3.17-1.54,6.72-2.41,10.49-2.41h9.39c1.44,0,2.6,1.17,2.6,2.6Z"/>
      <path class="cls-3" d="M115.01,25.05l-2.83,2.83c-.75.75-1.86.94-2.84.56-1.69-.66-3.53-1.02-5.46-1.02h-9.41c-1.43,0-2.6-1.16-2.6-2.6v-3.73c0-1.43,1.17-2.6,2.6-2.6h9.41c3.76,0,7.32.87,10.5,2.42,1.58.77,1.88,2.9.64,4.15Z"/>
      <path class="cls-3" d="M127.87,42.49v9.4c0,1.44-1.17,2.6-2.6,2.6h-3.73c-1.44,0-2.6-1.16-2.6-2.6v-9.4c0-1.92-.36-3.76-1.02-5.44-.38-.98-.19-2.09.56-2.84l2.83-2.83c1.28-1.28,3.42-.88,4.21.76,1.5,3.14,2.35,6.65,2.35,10.36Z"/>
      <rect class="cls-3" x="100.85" y="68.69" width="27.02" height="9" rx="2.6" ry="2.6"/>
      <rect class="cls-2" x="18.49" y="68.69" width="26.99" height="9" rx="2.6" ry="2.6"/>
      <rect class="cls-3" x="68.67" y="18.49" width="9" height="27.01" rx="2.6" ry="2.6"/>
      <rect class="cls-2" x="68.67" y="100.88" width="9" height="27.01" rx="2.6" ry="2.6"/>
      <path class="cls-3" d="M68.67,57.11v17.98c0,1.44,1.16,2.6,2.6,2.6h17.98c1.44,0,2.6-1.16,2.6-2.6v-3.8c0-1.44-1.16-2.6-2.6-2.6h-8.98c-1.44,0-2.6-1.16-2.6-2.6v-8.98c0-1.44-1.16-2.6-2.6-2.6h-3.8c-1.43,0-2.6,1.17-2.6,2.6Z"/>
      <path class="cls-2" d="M54.5,71.29v3.8c0,1.44,1.16,2.6,2.6,2.6h8.97c1.44,0,2.6,1.16,2.6,2.6v8.98c0,1.44,1.17,2.6,2.6,2.6h3.8c1.44,0,2.6-1.16,2.6-2.6v-17.98c0-1.44-1.16-2.6-2.6-2.6h-17.97c-1.44,0-2.6,1.16-2.6,2.6Z"/>
    </g>
  </g>
</svg>