<?xml version="1.0" encoding="UTF-8"?>
<svg id="Capa_2" data-name="Capa 2" xmlns="http://www.w3.org/2000/svg" viewBox="0 0 145.38 145.38">
  <defs>
    <style>
      .cls-1 {
        fill: #ff0037;
      }

      .cls-2 {
        fill: #a0a0a0;
      }

      .cls-3 {
        fill: none;
        opacity: 0;
      }
    </style>
  </defs>
  <g id="Capa_2-2" data-name="Capa 2">
    <g>
      <rect class="cls-3" width="145.38" height="145.38"/>
      <path class="cls-2" d="M96.92,60.16v9.93c0,1.44-1.16,2.6-2.6,2.6h-3.9c-1.44,0-2.6-1.16-2.6-2.6v-10.4c0-8.1-6.56-14.66-14.66-14.66h-23.5c-2.31,0-3.49,2.78-1.87,4.44h.01c1.02,1.03,1.02,2.67.01,3.69l-2.76,2.76c-1.02,1.02-2.66,1.02-3.68,0l-10.88-10.89h-.01s-1.32-1.33-1.32-1.33l-1.39-1.38c-1.01-1.02-1.01-2.66,0-3.68l2.71-2.71,10.89-10.89c1.02-1.02,2.66-1.01,3.68,0l2.76,2.76c1.01,1.02,1.01,2.66-.01,3.68h-.01c-1.66,1.63-.51,4.45,1.81,4.45h23.1c13.38,0,24.23,10.85,24.23,24.23Z"/>
      <path class="cls-1" d="M48.54,85.25v-9.93c0-1.44,1.16-2.6,2.6-2.6h3.9c1.44,0,2.6,1.16,2.6,2.6v10.4c0,8.1,6.56,14.66,14.66,14.66h23.44c2.31,0,3.49-2.78,1.87-4.44h-.01c-1.02-1.03-1.02-2.67-.01-3.69l2.76-2.76c1.02-1.02,2.66-1.02,3.68,0l10.88,10.89h.01s1.32,1.33,1.32,1.33l1.39,1.38c1.01,1.02,1.01,2.66,0,3.68l-2.71,2.71-10.89,10.89c-1.02,1.02-2.66,1.01-3.68,0l-2.76-2.76c-1.01-1.02-1.01-2.66.01-3.68h.01c1.66-1.63.51-4.45-1.81-4.45h-23.03c-13.38,0-24.23-10.85-24.23-24.23Z"/>
    </g>
  </g>
</svg>